<svg xmlns="http://www.w3.org/2000/svg" width="41" height="40" fill="none"><path fill="#171717" d="M32.299 12.028a7.37 7.37 0 0 1-3.949-2.256 7.12 7.12 0 0 1-1.819-4.11V5h-5.27v20.505a4.3 4.3 0 0 1-.838 2.528 4.43 4.43 0 0 1-2.184 1.575 4.5 4.5 0 0 1-2.711.033 4.43 4.43 0 0 1-2.223-1.521 4.3 4.3 0 0 1-.902-2.55 4.3 4.3 0 0 1 .81-2.58 4.42 4.42 0 0 1 2.208-1.613 4.5 4.5 0 0 1 2.753-.022v-5.249a9.85 9.85 0 0 0-5.823.997 9.6 9.6 0 0 0-4.147 4.13 9.33 9.33 0 0 0-.924 5.725 9.42 9.42 0 0 0 2.643 5.184 9.74 9.74 0 0 0 4.954 2.66 9.87 9.87 0 0 0 5.625-.504 9.65 9.65 0 0 0 4.382-3.494 9.36 9.36 0 0 0 1.648-5.297V15.029a12.7 12.7 0 0 0 7.301 2.289v-5.134c-.515 0-1.03-.052-1.534-.156"/></svg>