<svg xmlns="http://www.w3.org/2000/svg" width="41" height="40" fill="none"><path fill="#171717" fill-rule="evenodd" d="M4.605 37.08c.906-2.921 1.955-5.7 2.914-8.567C1.16 17.393 9.029 4.877 19.685 3.837c10.062-.982 18.31 6.245 18.336 16.108.026 10.407-10.067 19.145-21.42 15.593-.857-.267-1.916-1.14-2.913-1.2-1.394-.081-3.22.92-4.627 1.372-1.543.496-2.884.993-4.456 1.37m9.425-5.825c9.168 5.564 20.146-.677 21.078-9.768.843-8.23-5.729-15.552-14.566-14.908-10.09.734-16.15 12.778-9.939 21.591a87 87 0 0 0-1.542 4.627c1.683-.488 3.235-1.106 4.97-1.542" clip-rule="evenodd"/><path fill="#171717" fill-rule="evenodd" d="M17.629 12.234c.964 2.017 2.456 5 0 6.34 1.247 2.637 3.31 4.459 5.997 5.655.894-.591 1.481-1.49 2.228-2.228 1.56.61 3.019 1.323 4.284 2.228.13 2.948-2.354 4.038-4.455 3.941-4.433-.204-10.525-5.804-11.995-9.939-.873-2.453.13-7.146 3.94-5.997" clip-rule="evenodd"/></svg>